<?xml version="1.0" ?><svg baseProfile="basic" id="Layer_1" version="1.1" viewBox="0 0 480 480" xml:space="preserve" xmlns="http://www.w3.org/2000/svg" xmlns:xlink="http://www.w3.org/1999/xlink"><g><polygon fill="#262626" opacity="0.3" points="272,414 428,336 168,206 12,284  "/><g><path d="M120.2,203.3c-14.9-7.4-28.3-8-37.9-2.9l-27.4,13.8c-9.2,4.9-15,15-15,29.3c0,29.2,23.7,64.6,52.8,79.2    c16,8,30.4,8,40,1.6l22.3-11.1c11-4.2,18-14.9,18-30.7C173.1,253.4,149.4,217.9,120.2,203.3z" fill="#2D3134"/><path d="M145.6,296.3c0,29.2-23.7,41-52.8,26.4s-52.8-50.1-52.8-79.2s23.7-41,52.8-26.4    C121.9,231.7,145.6,267.2,145.6,296.3z" opacity="0.11"/><path d="M95.1,215.8c-15.9-7.9-30.1-8-39.8-1.8c9.1-3,20.9-1.7,33.7,4.7    c29.2,14.6,52.8,50.1,52.8,79.2c0,13.3-4.9,23-13,28.2c11.7-3.9,19.1-14.8,19.1-31.1C148,265.8,124.3,230.4,95.1,215.8z" fill="#FFFFFF" opacity="0.1"/><path d="M118.7,282.9c0,14.3-11.6,20.1-25.9,12.9S66.9,271.3,66.9,257c0-14.3,11.6-20.1,25.9-12.9    S118.7,268.6,118.7,282.9z" fill="#28896D"/><path d="M116.5,281.8c0,13.1-10.6,18.5-23.8,11.9S69,271.2,69,258c0-13.1,10.6-18.5,23.8-11.9    S116.5,268.7,116.5,281.8z" fill="#28896D"/><path d="M116.5,281.8c0,13.1-10.6,18.5-23.8,11.9S69,271.2,69,258c0-13.1,10.6-18.5,23.8-11.9    S116.5,268.7,116.5,281.8z" fill="#28896D"/><path d="M116.5,281.8c0,13.1-10.6,18.5-23.8,11.9S69,271.2,69,258c0-13.1,10.6-18.5,23.8-11.9    S116.5,268.7,116.5,281.8z" opacity="0.29"/><path d="M92.8,246.2C79.6,239.6,69,244.9,69,258c0,7.1,3.1,15,8.1,21.9l33.5-16.8C106.2,256,99.9,249.7,92.8,246.2    z" opacity="0.15"/><path d="M97.3,248.9l-6.2,3.3c-2.9,1.3-5.2,3.5-5.2,7.8c0,7.1,5.8,15.8,12.9,19.4c3.3,1.7,6.3,1.9,8.6,1l8.5-4.1    C113.9,266.1,106.6,255.3,97.3,248.9z" fill="#28896D"/><path d="M97.3,248.9l-6.2,3.3c-2.9,1.3-5.2,3.5-5.2,7.8c0,7.1,5.8,15.8,12.9,19.4c3.3,1.7,6.3,1.9,8.6,1l8.5-4.1    C113.9,266.1,106.6,255.3,97.3,248.9z" opacity="0.29"/><path d="M131.2,252.9c8.9,13.9,14.4,29.4,14.4,43.5c0,13.2-4.8,22.8-12.8,28l22.3-11.1c11-4.2,18-14.9,18-30.7    c0-14-5.5-29.5-14.4-43.4L131.2,252.9z" opacity="0.29"/><path d="M111.8,272.9c0,7.1-5.8,10-12.9,6.5c-7.1-3.6-12.9-12.3-12.9-19.4s5.8-10,12.9-6.5    S111.8,265.8,111.8,272.9z" fill="#28896D"/><g opacity="0.5"><g><path d="M101,259.1c0,1.2-0.9,1.6-2.1,1.1s-2.1-2-2.1-3.2c0-1.2,0.9-1.6,2.1-1.1S101,257.9,101,259.1z"/></g><g><path d="M101,276c0,1.2-0.9,1.6-2.1,1.1s-2.1-2-2.1-3.2c0-1.2,0.9-1.6,2.1-1.1S101,274.8,101,276z"/></g><g><path d="M94.4,256.7c0.8,1.2,0.8,2.6,0,3c-0.8,0.4-2.2-0.3-3-1.5s-0.8-2.6,0-3S93.5,255.5,94.4,256.7z"/></g><g><path d="M106.3,274.7c0.8,1.2,0.8,2.6,0,3c-0.8,0.4-2.2-0.3-3-1.5c-0.8-1.2-0.8-2.6,0-3C104.1,272.8,105.5,273.4,106.3,274.7z"/></g><g><path d="M90.4,260.1c1.2,0.6,2.1,2,2.1,3.2s-0.9,1.6-2.1,1.1c-1.2-0.6-2.1-2-2.1-3.2S89.2,259.5,90.4,260.1z"/></g><g><path d="M107.3,268.6c1.2,0.6,2.1,2,2.1,3.2s-0.9,1.6-2.1,1.1c-1.2-0.6-2.1-2-2.1-3.2S106.1,268,107.3,268.6z"/></g><g><path d="M91.4,267.2c0.8-0.4,2.2,0.3,3,1.5c0.8,1.2,0.8,2.6,0,3c-0.8,0.4-2.2-0.3-3-1.5C90.5,268.9,90.5,267.6,91.4,267.2z"/></g><g><path d="M103.3,261.2c0.8-0.4,2.2,0.3,3,1.5c0.8,1.2,0.8,2.6,0,3c-0.8,0.4-2.2-0.3-3-1.5S102.5,261.6,103.3,261.2z"/></g></g><g><path d="M92.8,217.1c-29.2-14.6-52.8-2.8-52.8,26.4s23.7,64.6,52.8,79.2s52.8,2.8,52.8-26.4     S121.9,231.7,92.8,217.1z M92.8,316.4c-25.7-12.8-46.5-44-46.5-69.7c0-25.7,20.8-36.1,46.5-23.2c25.7,12.8,46.5,44,46.5,69.7     C139.3,318.8,118.4,329.2,92.8,316.4z" fill="#FFFFFF" opacity="0.1"/><g opacity="0.5"><path d="M88.9,219.4l8.5,4.2l-4.2-6.3c-0.1-0.1-0.2-0.1-0.4-0.2c-2.6-1.3-5.1-2.3-7.6-3.2L88.9,219.4z"/><path d="M97.3,320.8l-8.5-4.2l3.2,5.8c0.2,0.1,0.5,0.3,0.7,0.4c2.5,1.2,5,2.3,7.4,3.2L97.3,320.8z"/><path d="M65.1,215.9l7.3-0.6l-5.8-4.4c-0.1,0-0.2,0-0.3,0c-2.2,0.2-4.3,0.6-6.3,1.1L65.1,215.9z"/><path d="M121,323.8l-7.3,0.6l4.8,4.5c0.2,0,0.4,0,0.6,0c2.2-0.2,4.2-0.5,6.1-1.1L121,323.8z"/><path d="M48.7,226.9l4.2-5.2l-5.8-1.3c-0.1,0.1-0.1,0.1-0.2,0.2c-1.3,1.6-2.4,3.3-3.3,5.2L48.7,226.9z"/><path d="M137.1,312.3l-4.2,5.2l5.2,2c0.1-0.1,0.3-0.3,0.4-0.4c1.2-1.5,2.3-3.2,3.2-5L137.1,312.3z"/><path d="M44.2,249.4V241l-4.2,2.1c0,0.1,0,0.2,0,0.4c0,2.6,0.2,5.2,0.5,7.8L44.2,249.4z"/><path d="M141.4,289.5v8.5l4.2-1.1c0-0.2,0-0.5,0-0.7c0-2.5-0.2-5-0.5-7.6L141.4,289.5z"/><path d="M52.6,277.4l-4.2-9.4l-1.5,5c0.1,0.1,0.1,0.3,0.2,0.4c1.3,2.9,2.7,5.7,4.2,8.4L52.6,277.4z"/><path d="M132.6,261.5l4.2,9.4l2.1-3.8c-0.1-0.3-0.2-0.5-0.3-0.8c-1.2-2.8-2.6-5.5-4.1-8.2L132.6,261.5z"/><path d="M71.8,303.4l-7.3-7.9l1.5,6.5c0.1,0.1,0.2,0.2,0.3,0.3c2.2,2.4,4.5,4.6,6.8,6.7L71.8,303.4z"/><path d="M113.1,235.7l7.3,7.9l-0.6-5.5c-0.2-0.2-0.4-0.5-0.6-0.7c-2.2-2.3-4.4-4.5-6.6-6.5L113.1,235.7z"/></g><g opacity="0.5"><path d="M84.4,199.4c-0.7,0.3-1.4,0.6-2.1,1l-6.9,3.4l-0.8,1.3L60.1,212c2-0.6,4-0.9,6.3-1.1c0.1,0,0.2,0,0.3,0l14.7-6.3      L84.4,199.4z"/><path d="M149.9,227.3c-1.6-1.9-3.3-3.7-5-5.5l-8.3,9.8l-24.1-0.8c2.3,2,4.5,4.2,6.6,6.5c0.2,0.2,0.4,0.5,0.6,0.7l21.2,0.5      L149.9,227.3z"/><path d="M92.8,217.1c0.1,0.1,0.2,0.1,0.4,0.2l23.4-2.3l5.7-10.6c-0.7-0.4-1.3-0.7-2-1c-1.5-0.7-3-1.4-4.4-2l-5.4,9.4l-25.2,3.2      C87.7,214.8,90.2,215.8,92.8,217.1z"/><path d="M159.9,300.7l11.4-5.5c0.9-2.8,1.4-6,1.7-9.4l-12.2,6.4l-15.6-3.6c0.3,2.6,0.5,5.1,0.5,7.6c0,0.2,0,0.5,0,0.7      L159.9,300.7z"/><path d="M141.7,314.1c-0.9,1.8-2,3.5-3.2,5c-0.1,0.1-0.3,0.3-0.4,0.4l3.4,0.5l9-4.5L141.7,314.1z"/><path d="M138.9,267.1l20.4,4.3l10.4-9.1c-1-3.2-2.2-6.3-3.6-9.5l-10.4,8.7l-21.2-3.4c1.5,2.7,2.9,5.4,4.1,8.2      C138.7,266.5,138.8,266.8,138.9,267.1z"/></g></g></g><polygon fill="#656565" points="110.8,179.1 163.5,205.5 123.3,225.6 70.6,199.1  "/><polygon fill="#28896D" points="191,249.9 163.5,205.5 110.8,179.1 90.7,184.4 50.5,204.4 70.6,199.1 123.3,225.6 151,270 151,289    191.1,268.9 191.1,249.9  "/><polygon opacity="0.29" points="110.8,179.1 90.7,184.4 50.5,204.4 70.6,199.1  "/><polygon fill="#28896D" points="300,275 300,235 206,282 206,322  "/><polygon opacity="0.1" points="191,249.9 163.5,205.5 123.3,225.6 150.8,269.9  "/><polygon opacity="0.29" points="191.1,249.9 191.1,268.9 151,289 151,270  "/><polygon fill="#2D3134" points="206,75 112,122 112,197 145.9,214 173,258 173,306 206,322 300,279 300,122  "/><polygon fill="#656565" points="183,267.8 183,255.3 153,206.4 122,190.9 122,138 202,178.1 202,277  "/><polygon fill="#2D3134" points="152,208 146,205 146,148 152,151  "/><polygon opacity="0.1" points="202,185.5 154.7,209.2 182.4,254.2 202,244.4  "/><polygon fill="#FFFFFF" opacity="0.1" points="174.6,164.3 122.4,191.1 153,206.4 154.7,209.2 202,185.5 202,178.1  "/><polygon opacity="0.11" points="112,122 112,197 145.9,214 173,258 173,306 206,322 206,282 206,169  "/><polygon fill="#656565" points="296,234 296,135 210,178 210,277  "/><polygon fill="#FFFFFF" opacity="0.15" points="206,180.3 300,183.1 300,129 206,176  "/><polygon fill="#2D3134" points="300,133 300,122 206,169 206,180  "/><g><g><polygon fill="#28896D" points="179,269 169,274 169,326 173,328 177,326 183,271    "/><polygon opacity="0.11" points="169,274 173,276 173,328 169,326    "/><polygon opacity="0.29" points="183,271 173,276 173,328 177,326    "/></g><g><polygon fill="#28896D" points="181,282 173,286 173,290 191,299 195,289    "/><polygon opacity="0.11" points="173,286 173,290 191,299 191,295    "/></g><g><polygon fill="#28896D" points="179,299 173,302 173,306 191,315 193,306    "/><polygon opacity="0.11" points="173,302 173,306 191,315 191,311    "/></g><g><polygon fill="#28896D" points="177,316 173,318 173,322 191,331 191,323    "/><polygon opacity="0.11" points="173,318 173,322 191,331 191,327    "/></g><g><polygon fill="#28896D" points="201,280 191,285 191,337 195,339 199,337 205,282    "/><polygon opacity="0.11" points="191,285 195,287 195,339 191,337    "/><polygon opacity="0.29" points="205,282 195,287 195,339 199,337    "/></g></g><g><path d="M375.2,236.2c-12.5-6.2-23.7-6.7-31.7-2.4l-22.9,11.5c-7.7,4.1-12.5,12.6-12.5,24.5    c0,24.4,19.8,54.1,44.2,66.3c13.4,6.7,25.4,6.7,33.5,1.4l18.6-9.3c9.2-3.5,15-12.4,15-25.7C419.4,278.1,399.6,248.4,375.2,236.2z" fill="#2D3134"/><path d="M396.4,314.1c0,24.4-19.8,34.3-44.2,22.1S308,294.3,308,269.9s19.8-34.3,44.2-22.1    S396.4,289.6,396.4,314.1z" opacity="0.11"/><path d="M354.2,246.7c-13.3-6.6-25.2-6.7-33.3-1.5c7.7-2.5,17.5-1.4,28.2,3.9    c24.4,12.2,44.2,41.9,44.2,66.3c0,11.1-4.1,19.2-10.9,23.6c9.8-3.2,16-12.3,16-26C398.4,288.5,378.6,258.9,354.2,246.7z" fill="#FFFFFF" opacity="0.1"/><path d="M373.9,302.8c0,12-9.7,16.8-21.7,10.8s-21.7-20.5-21.7-32.5s9.7-16.8,21.7-10.8S373.9,290.8,373.9,302.8z" fill="#28896D"/><path d="M372.1,301.9c0,11-8.9,15.4-19.9,9.9c-11-5.5-19.9-18.8-19.9-29.8c0-11,8.9-15.4,19.9-9.9    S372.1,290.9,372.1,301.9z" fill="#28896D"/><path d="M372.1,301.9c0,11-8.9,15.4-19.9,9.9c-11-5.5-19.9-18.8-19.9-29.8c0-11,8.9-15.4,19.9-9.9    S372.1,290.9,372.1,301.9z" fill="#28896D"/><path d="M372.1,301.9c0,11-8.9,15.4-19.9,9.9c-11-5.5-19.9-18.8-19.9-29.8c0-11,8.9-15.4,19.9-9.9    S372.1,290.9,372.1,301.9z" opacity="0.29"/><path d="M352.2,272.1c-11-5.5-19.9-1-19.9,9.9c0,5.9,2.6,12.6,6.7,18.3l28.1-14C363.5,280.3,358.1,275,352.2,272.1    z" opacity="0.15"/><path d="M356,274.4l-5.2,2.8c-2.4,1.1-4.4,2.9-4.4,6.5c0,6,4.8,13.3,10.8,16.2c2.8,1.4,5.3,1.6,7.2,0.8l7.1-3.4    C369.9,288.8,363.8,279.7,356,274.4z" fill="#28896D"/><path d="M356,274.4l-5.2,2.8c-2.4,1.1-4.4,2.9-4.4,6.5c0,6,4.8,13.3,10.8,16.2c2.8,1.4,5.3,1.6,7.2,0.8l7.1-3.4    C369.9,288.8,363.8,279.7,356,274.4z" opacity="0.29"/><path d="M383.9,278.1c7.5,11.7,12.1,24.6,12.1,36.4c0,11-4,19.1-10.7,23.5l18.6-9.3c9.2-3.5,15-12.4,15-25.7    c0-11.7-4.6-24.7-12-36.3L383.9,278.1z" opacity="0.29"/><path d="M368.1,294.5c0,6-4.8,8.4-10.8,5.4s-10.8-10.3-10.8-16.2c0-6,4.8-8.4,10.8-5.4S368.1,288.5,368.1,294.5z" fill="#28896D"/><g opacity="0.5"><g><path d="M359.1,282.9c0,1-0.8,1.4-1.8,0.9s-1.8-1.7-1.8-2.7c0-1,0.8-1.4,1.8-0.9S359.1,281.9,359.1,282.9z"/></g><g><path d="M359.1,297c0,1-0.8,1.4-1.8,0.9s-1.8-1.7-1.8-2.7s0.8-1.4,1.8-0.9C358.3,294.8,359.1,296,359.1,297z"/></g><g><path d="M353.5,280.9c0.7,1,0.7,2.2,0,2.5c-0.7,0.3-1.8-0.2-2.5-1.2c-0.7-1-0.7-2.2,0-2.5C351.7,279.3,352.8,279.9,353.5,280.9z      "/></g><g><path d="M363.5,295.9c0.7,1,0.7,2.2,0,2.5c-0.7,0.3-1.8-0.2-2.5-1.2c-0.7-1-0.7-2.2,0-2.5C361.7,294.3,362.8,294.9,363.5,295.9z      "/></g><g><path d="M350.2,283.7c1,0.5,1.8,1.7,1.8,2.7c0,1-0.8,1.4-1.8,0.9s-1.8-1.7-1.8-2.7S349.2,283.3,350.2,283.7z"/></g><g><path d="M364.4,290.8c1,0.5,1.8,1.7,1.8,2.7c0,1-0.8,1.4-1.8,0.9c-1-0.5-1.8-1.7-1.8-2.7C362.6,290.7,363.4,290.3,364.4,290.8z"/></g><g><path d="M351,289.7c0.7-0.3,1.8,0.2,2.5,1.2c0.7,1,0.7,2.2,0,2.5c-0.7,0.3-1.8-0.2-2.5-1.2C350.3,291.1,350.3,290,351,289.7z"/></g><g><path d="M361,284.7c0.7-0.3,1.8,0.2,2.5,1.2c0.7,1,0.7,2.2,0,2.5c-0.7,0.3-1.8-0.2-2.5-1.2C360.3,286.1,360.3,285,361,284.7z"/></g></g><g><path d="M352.2,247.8c-24.4-12.2-44.2-2.3-44.2,22.1c0,24.4,19.8,54.1,44.2,66.3     c24.4,12.2,44.2,2.3,44.2-22.1S376.6,260,352.2,247.8z M352.2,330.9c-21.5-10.7-38.9-36.9-38.9-58.3c0-21.5,17.4-30.2,38.9-19.5     s38.9,36.9,38.9,58.3S373.7,341.6,352.2,330.9z" fill="#FFFFFF" opacity="0.1"/><g opacity="0.5"><path d="M349,249.7l7.1,3.5l-3.5-5.3c-0.1-0.1-0.2-0.1-0.3-0.2c-2.1-1.1-4.3-2-6.3-2.7L349,249.7z"/><path d="M356,334.5L349,331l2.6,4.8c0.2,0.1,0.4,0.2,0.6,0.3c2.1,1,4.1,1.9,6.2,2.6L356,334.5z"/><path d="M329.1,246.7l6.1-0.5l-4.8-3.7c-0.1,0-0.2,0-0.3,0c-1.9,0.1-3.6,0.5-5.2,0.9L329.1,246.7z"/><path d="M375.8,337l-6.1,0.5l4,3.8c0.2,0,0.4,0,0.5,0c1.8-0.1,3.5-0.5,5.1-0.9L375.8,337z"/><path d="M315.3,255.9l3.5-4.4l-4.8-1.1c-0.1,0.1-0.1,0.1-0.2,0.2c-1.1,1.3-2,2.8-2.8,4.3L315.3,255.9z"/><path d="M389.3,327.4l-3.5,4.4l4.4,1.7c0.1-0.1,0.2-0.2,0.3-0.4c1-1.3,1.9-2.7,2.7-4.2L389.3,327.4z"/><path d="M311.6,274.8v-7.1l-3.5,1.8c0,0.1,0,0.2,0,0.3c0,2.1,0.2,4.3,0.5,6.5L311.6,274.8z"/><path d="M392.9,308.4v7.1l3.5-0.9c0-0.2,0-0.4,0-0.6c0-2.1-0.2-4.2-0.4-6.4L392.9,308.4z"/><path d="M318.6,298.2l-3.5-7.9l-1.3,4.2c0,0.1,0.1,0.2,0.1,0.3c1.1,2.4,2.3,4.7,3.6,7L318.6,298.2z"/><path d="M385.5,284.9l3.5,7.9l1.7-3.2c-0.1-0.2-0.2-0.4-0.3-0.7c-1-2.3-2.2-4.6-3.5-6.8L385.5,284.9z"/><path d="M334.7,320l-6.1-6.6l1.3,5.5c0.1,0.1,0.2,0.2,0.3,0.3c1.9,2,3.8,3.9,5.7,5.6L334.7,320z"/><path d="M369.2,263.3l6.1,6.6l-0.5-4.6c-0.2-0.2-0.3-0.4-0.5-0.6c-1.8-1.9-3.7-3.8-5.5-5.5L369.2,263.3z"/></g><g opacity="0.5"><path d="M345.2,233c-0.6,0.3-1.2,0.5-1.8,0.8l-5.7,2.9l-0.6,1.1l-12.2,5.7c1.6-0.5,3.4-0.8,5.2-0.9c0.1,0,0.2,0,0.3,0l12.3-5.2      L345.2,233z"/><path d="M400,256.3c-1.3-1.6-2.7-3.1-4.2-4.6l-6.9,8.2l-20.2-0.7c1.9,1.7,3.7,3.5,5.5,5.5c0.2,0.2,0.3,0.4,0.5,0.6l17.7,0.4      L400,256.3z"/><path d="M352.2,247.8c0.1,0.1,0.2,0.1,0.3,0.2l19.6-1.9l4.8-8.9c-0.6-0.3-1.1-0.6-1.7-0.9c-1.3-0.6-2.5-1.2-3.7-1.7l-4.5,7.8      l-21,2.7C347.9,245.8,350.1,246.7,352.2,247.8z"/><path d="M408.3,317.7l9.6-4.6c0.7-2.4,1.2-5,1.4-7.8l-10.2,5.3l-13.1-3c0.3,2.2,0.4,4.3,0.4,6.4c0,0.2,0,0.4,0,0.6L408.3,317.7z      "/><path d="M393.1,328.9c-0.8,1.5-1.7,2.9-2.7,4.2c-0.1,0.1-0.2,0.2-0.3,0.4l2.9,0.4l7.6-3.8L393.1,328.9z"/><path d="M390.8,289.6l17.1,3.6l8.7-7.6c-0.8-2.6-1.9-5.3-3-7.9l-8.7,7.3l-17.8-2.9c1.2,2.2,2.4,4.5,3.5,6.8      C390.6,289.1,390.7,289.4,390.8,289.6z"/></g></g></g><g><polygon fill="#28896D" points="386,339 386,328 330,356 330,367   "/><polygon opacity="0.29" points="386,339 386,328 330,356 330,367   "/><polygon fill="#2D3134" points="280,264 402,325 346,353 224,292   "/><polygon fill="#28896D" points="402,336 402,325 346,353 346,364   "/><polygon opacity="0.29" points="402,336 402,325 346,353 346,364   "/><polygon fill="#28896D" points="224,314 224,292 346,353 346,364 330,356 330,367   "/><polygon opacity="0.11" points="224,314 224,292 346,353 346,364 330,356 330,367   "/></g><polygon opacity="0.29" points="300,257 300,122 206,169 206,304  "/><g><path d="M224,221l56-28l82,50.5c14.9,9,24,25.1,24,42.5V317l-56,28l-106-53V221z" fill="#28896D"/><path d="M322.6,291.3l-7.6-3.8c-3.2-1.6-7,0.7-7,4.3v25.6c0,5.3,3,10.1,7.7,12.4l10.8,5.4c2.2,1.1,4.9,1.1,7.1,0    L386,309v-22.9c0-7.3-1.6-14.4-4.6-20.8l-51.9,26C327.3,292.4,324.8,292.4,322.6,291.3z" fill="#2D3134"/><polygon fill="#2D3134" points="238,249 238,251 270,267 270,265   "/><polygon fill="#2D3134" points="238,254 238,256 270,272 270,270   "/><polygon fill="#2D3134" points="238,259 238,261 270,277 270,275   "/><polygon fill="#2D3134" points="238,264 238,266 270,282 270,280   "/><polygon fill="#2D3134" points="238,269 238,271 270,287 270,285   "/><path d="M224,292l0-71l82,50.5c14.9,9,24,25.1,24,42.5V345L224,292z" opacity="0.11"/><path d="M224,292l0-71l82,50.5c14.9,9,24,25.1,24,42.5V345L224,292z" opacity="0.11"/></g><g><path d="M350,308.3v-5c0-2-2.1-3.3-3.9-2.4l-12.6,6.3c-0.9,0.5-1.5,1.4-1.5,2.4v5c0,2,2.1,3.3,3.9,2.4l12.6-6.3    C349.4,310.3,350,309.4,350,308.3z" fill="#FFFFFF"/><ellipse cx="344.2" cy="307.4" fill="#2D3134" opacity="0.3" rx="4.9" ry="3.2" transform="matrix(-0.6313 0.7756 -0.7756 -0.6313 799.9012 234.4486)"/><ellipse cx="338" cy="310.4" fill="#2D3134" opacity="0.3" rx="4.9" ry="3.2" transform="matrix(-0.6313 0.7756 -0.7756 -0.6313 792.0521 244.1803)"/><path d="M349.4,309.9l-16.9-1.9c-0.3,0.5-0.6,1-0.6,1.6v5c0,2,2.1,3.3,3.9,2.4l12.6-6.3    C348.9,310.6,349.2,310.3,349.4,309.9z" fill="#FFFFFF" opacity="0.3"/></g><g><path d="M384,291.3v-5c0-2-2.1-3.3-3.9-2.4l-12.6,6.3c-0.9,0.5-1.5,1.4-1.5,2.4v5c0,2,2.1,3.3,3.9,2.4l12.6-6.3    C383.4,293.3,384,292.4,384,291.3z" fill="#FFFFFF"/><ellipse cx="378.2" cy="290.4" fill="#2D3134" opacity="0.3" rx="4.9" ry="3.2" transform="matrix(-0.6313 0.7756 -0.7756 -0.6313 842.1801 180.3479)"/><ellipse cx="372" cy="293.4" fill="#2D3134" opacity="0.3" rx="4.9" ry="3.2" transform="matrix(-0.6313 0.7756 -0.7756 -0.6313 834.3309 190.0796)"/><path d="M383.4,292.9l-16.9-1.9c-0.3,0.5-0.6,1-0.6,1.6v5c0,2,2.1,3.3,3.9,2.4l12.6-6.3    C382.9,293.6,383.2,293.3,383.4,292.9z" fill="#FFFFFF" opacity="0.3"/></g><path d="M381.4,265.3L326,293l-0.9-0.5c3.2,6.6,4.9,13.9,4.9,21.5V345l0,0l56-28v-30.9   C386,278.8,384.4,271.7,381.4,265.3z" opacity="0.29"/><path d="M372.5,256.9l-49.3,23.9c-2.1,1-2.8,3.7-1.5,5.7c0,0,0,0,0,0.1c1.1,1.6,3.2,2.1,4.9,1.3   l49.3-23.9c2.1-1,2.9-3.7,1.6-5.7c0,0,0,0,0-0.1C376.4,256.6,374.3,256,372.5,256.9z" fill="#FFFFFF" opacity="0.1"/><g><polygon fill="#28896D" points="204,66 110,113 110,128 208,177 302,130 302,115   "/><polygon opacity="0.11" points="110,128 110,113 208,162 208,177   "/><path d="M226.4,160.7c0,2.9,2.4,4.1,5.3,2.7c2.9-1.5,5.3-5,5.3-8s-2.4-4.1-5.3-2.7    C228.8,154.2,226.4,157.8,226.4,160.7z" fill="#FFFFFF"/><path d="M275.4,136.6c0,2.9,2.4,4.1,5.3,2.7c2.9-1.5,5.3-5,5.3-8s-2.4-4.1-5.3-2.7    C277.8,130.1,275.4,133.6,275.4,136.6z" fill="#FFFFFF"/><polygon fill="#FFCC00" points="300,126 300,119 288,125 288,132   "/><polygon fill="#FFCC00" points="222,165 222,158 210,164 210,171   "/><ellipse cx="282.2" cy="132.5" fill="#2D3134" opacity="0.3" rx="3.1" ry="2.1" transform="matrix(-0.6313 0.7756 -0.7756 -0.6313 563.1011 -2.7664)"/><ellipse cx="232.2" cy="156.5" fill="#2D3134" opacity="0.3" rx="3.1" ry="2.1" transform="matrix(-0.6313 0.7756 -0.7756 -0.6313 500.1507 75.1621)"/><polygon opacity="0.29" points="302,130 302,115 208,162 208,177   "/></g><g><path d="M223,190c-4.4,0-8,1.8-8,4v78c0,2.2,3.6,4,8,4s8-1.8,8-4v-78C231,191.8,227.4,190,223,190z" fill="#2D3134"/><ellipse cx="223" cy="194" opacity="0.8" rx="6" ry="2.5"/><path d="M237.4,292.3c0-1.3-1.1-3-2.4-3.7c-0.9-0.4-1.6-0.4-2,0.1c-1.5,0.5-3.1,0.3-4.5-0.5    c-1.6-1-2.5-2.6-2.5-4.5V146h-6v137.7c0,3.9,2,7.5,5.4,9.6c1.8,1.1,3.9,1.7,5.9,1.7c1.7,0,3.5-0.4,5.1-1.2    C236.3,293.8,237.4,293.1,237.4,292.3z" fill="#2D3134"/><path d="M226,190.3v1.5c1.8,0.4,3,1.2,3,2.2c0,1.4-2.7,2.5-6,2.5s-6-1.1-6-2.5c0-0.9,1.2-1.7,3-2.2v-1.5    c-2.9,0.6-5,2-5,3.7v78c0,2.2,3.6,4,8,4s8-1.8,8-4v-78C231,192.3,228.9,190.9,226,190.3z" fill="#2D3134"/><path d="M223,198c-4.4,0-8-1.8-8-4v78c0,2.2,3.6,4,8,4s8-1.8,8-4v-78C231,196.2,227.4,198,223,198z" opacity="0.2"/><ellipse cx="223" cy="146" fill="#2D3134" rx="3" ry="2"/></g><g><path d="M263.2,292.8c-12.5-6.2-23.7-6.7-31.7-2.4l-22.9,11.5c-7.7,4.1-12.5,12.6-12.5,24.5    c0,24.4,19.8,54.1,44.2,66.3c13.4,6.7,25.4,6.7,33.5,1.4l18.6-9.3c9.2-3.5,15-12.4,15-25.7C307.4,334.7,287.6,305,263.2,292.8z" fill="#2D3134"/><path d="M284.4,370.7c0,24.4-19.8,34.3-44.2,22.1S196,350.9,196,326.5s19.8-34.3,44.2-22.1    S284.4,346.3,284.4,370.7z" opacity="0.11"/><path d="M242.2,303.3c-13.3-6.6-25.2-6.7-33.3-1.5c7.7-2.5,17.5-1.4,28.2,3.9    c24.4,12.2,44.2,41.9,44.2,66.3c0,11.1-4.1,19.2-10.9,23.6c9.8-3.2,16-12.3,16-26C286.4,345.2,266.6,315.5,242.2,303.3z" fill="#FFFFFF" opacity="0.1"/><path d="M261.9,359.4c0,12-9.7,16.8-21.7,10.8c-12-6-21.7-20.5-21.7-32.5s9.7-16.8,21.7-10.8    C252.2,332.9,261.9,347.4,261.9,359.4z" fill="#28896D"/><path d="M260.1,358.5c0,11-8.9,15.4-19.9,9.9c-11-5.5-19.9-18.8-19.9-29.8c0-11,8.9-15.4,19.9-9.9    C251.2,334.2,260.1,347.5,260.1,358.5z" fill="#28896D"/><path d="M260.1,358.5c0,11-8.9,15.4-19.9,9.9c-11-5.5-19.9-18.8-19.9-29.8c0-11,8.9-15.4,19.9-9.9    C251.2,334.2,260.1,347.5,260.1,358.5z" fill="#28896D"/><path d="M260.1,358.5c0,11-8.9,15.4-19.9,9.9c-11-5.5-19.9-18.8-19.9-29.8c0-11,8.9-15.4,19.9-9.9    C251.2,334.2,260.1,347.5,260.1,358.5z" opacity="0.29"/><path d="M240.2,328.7c-11-5.5-19.9-1-19.9,9.9c0,5.9,2.6,12.6,6.7,18.3l28.1-14    C251.5,336.9,246.1,331.7,240.2,328.7z" opacity="0.15"/><path d="M244,331l-5.2,2.8c-2.4,1.1-4.4,2.9-4.4,6.5c0,6,4.8,13.3,10.8,16.2c2.8,1.4,5.3,1.6,7.2,0.8l7.1-3.4    C257.9,345.4,251.8,336.3,244,331z" fill="#28896D"/><path d="M244,331l-5.2,2.8c-2.4,1.1-4.4,2.9-4.4,6.5c0,6,4.8,13.3,10.8,16.2c2.8,1.4,5.3,1.6,7.2,0.8l7.1-3.4    C257.9,345.4,251.8,336.3,244,331z" opacity="0.29"/><path d="M272.3,334.3c7.5,11.7,12.1,24.6,12.1,36.4c0,11-4,19.1-10.7,23.5l18.6-9.3c9.2-3.5,15-12.4,15-25.7    c0-11.7-4.6-24.7-12-36.3L272.3,334.3z" opacity="0.29"/><path d="M256.1,351.1c0,6-4.8,8.4-10.8,5.4c-6-3-10.8-10.3-10.8-16.2s4.8-8.4,10.8-5.4    C251.3,337.8,256.1,345.1,256.1,351.1z" fill="#28896D"/><g opacity="0.5"><g><path d="M247.1,339.5c0,1-0.8,1.4-1.8,0.9c-1-0.5-1.8-1.7-1.8-2.7s0.8-1.4,1.8-0.9C246.3,337.3,247.1,338.5,247.1,339.5z"/></g><g><path d="M247.1,353.6c0,1-0.8,1.4-1.8,0.9c-1-0.5-1.8-1.7-1.8-2.7c0-1,0.8-1.4,1.8-0.9C246.3,351.5,247.1,352.6,247.1,353.6z"/></g><g><path d="M241.5,337.5c0.7,1,0.7,2.2,0,2.5s-1.8-0.2-2.5-1.2c-0.7-1-0.7-2.2,0-2.5C239.7,335.9,240.8,336.5,241.5,337.5z"/></g><g><path d="M251.5,352.5c0.7,1,0.7,2.2,0,2.5s-1.8-0.2-2.5-1.2c-0.7-1-0.7-2.2,0-2.5S250.8,351.5,251.5,352.5z"/></g><g><path d="M238.2,340.4c1,0.5,1.8,1.7,1.8,2.7s-0.8,1.4-1.8,0.9c-1-0.5-1.8-1.7-1.8-2.7C236.4,340.3,237.2,339.9,238.2,340.4z"/></g><g><path d="M252.4,347.4c1,0.5,1.8,1.7,1.8,2.7s-0.8,1.4-1.8,0.9c-1-0.5-1.8-1.7-1.8-2.7S251.4,346.9,252.4,347.4z"/></g><g><path d="M239,346.3c0.7-0.3,1.8,0.2,2.5,1.2s0.7,2.2,0,2.5s-1.8-0.2-2.5-1.2C238.3,347.8,238.3,346.6,239,346.3z"/></g><g><path d="M249,341.3c0.7-0.3,1.8,0.2,2.5,1.2c0.7,1,0.7,2.2,0,2.5s-1.8-0.2-2.5-1.2C248.3,342.7,248.3,341.6,249,341.3z"/></g></g><g><path d="M240.2,304.4c-24.4-12.2-44.2-2.3-44.2,22.1s19.8,54.1,44.2,66.3     c24.4,12.2,44.2,2.3,44.2-22.1S264.6,316.6,240.2,304.4z M240.2,387.5c-21.5-10.7-38.9-36.9-38.9-58.3     c0-21.5,17.4-30.2,38.9-19.5s38.9,36.9,38.9,58.3S261.7,398.2,240.2,387.5z" fill="#FFFFFF" opacity="0.1"/><g opacity="0.5"><path d="M237,306.3l7.1,3.5l-3.5-5.3c-0.1-0.1-0.2-0.1-0.3-0.2c-2.1-1.1-4.3-2-6.3-2.7L237,306.3z"/><path d="M244,391.2l-7.1-3.5l2.6,4.8c0.2,0.1,0.4,0.2,0.6,0.3c2.1,1,4.1,1.9,6.2,2.6L244,391.2z"/><path d="M217.1,303.4l6.1-0.5l-4.8-3.7c-0.1,0-0.2,0-0.3,0c-1.9,0.1-3.6,0.5-5.2,0.9L217.1,303.4z"/><path d="M263.8,393.7l-6.1,0.5l4,3.8c0.2,0,0.4,0,0.5,0c1.8-0.1,3.5-0.5,5.1-0.9L263.8,393.7z"/><path d="M203.3,312.5l3.5-4.4l-4.8-1.1c-0.1,0.1-0.1,0.1-0.2,0.2c-1.1,1.3-2,2.8-2.8,4.3L203.3,312.5z"/><path d="M277.3,384.1l-3.5,4.4l4.4,1.7c0.1-0.1,0.2-0.2,0.3-0.4c1-1.3,1.9-2.7,2.7-4.2L277.3,384.1z"/><path d="M199.6,331.4v-7.1l-3.5,1.8c0,0.1,0,0.2,0,0.3c0,2.1,0.2,4.3,0.5,6.5L199.6,331.4z"/><path d="M280.9,365v7.1l3.5-0.9c0-0.2,0-0.4,0-0.6c0-2.1-0.2-4.2-0.4-6.4L280.9,365z"/><path d="M206.6,354.8l-3.5-7.9l-1.3,4.2c0,0.1,0.1,0.2,0.1,0.3c1.1,2.4,2.3,4.7,3.6,7L206.6,354.8z"/><path d="M273.5,341.5l3.5,7.9l1.7-3.2c-0.1-0.2-0.2-0.4-0.3-0.7c-1-2.3-2.2-4.6-3.5-6.8L273.5,341.5z"/><path d="M222.7,376.6l-6.1-6.6l1.3,5.5c0.1,0.1,0.2,0.2,0.3,0.3c1.9,2,3.8,3.9,5.7,5.6L222.7,376.6z"/><path d="M257.2,319.9l6.1,6.6l-0.5-4.6c-0.2-0.2-0.3-0.4-0.5-0.6c-1.8-1.9-3.7-3.8-5.5-5.5L257.2,319.9z"/></g><g opacity="0.5"><path d="M233.2,289.6c-0.6,0.3-1.2,0.5-1.8,0.8l-5.7,2.9l-0.6,1.1l-12.2,5.7c1.6-0.5,3.4-0.8,5.2-0.9c0.1,0,0.2,0,0.3,0      l12.3-5.2L233.2,289.6z"/><path d="M288,312.9c-1.3-1.6-2.7-3.1-4.2-4.6l-6.9,8.2l-20.2-0.7c1.9,1.7,3.7,3.5,5.5,5.5c0.2,0.2,0.3,0.4,0.5,0.6l17.7,0.4      L288,312.9z"/><path d="M240.2,304.4c0.1,0.1,0.2,0.1,0.3,0.2l19.6-1.9l4.8-8.9c-0.6-0.3-1.1-0.6-1.7-0.9c-1.3-0.6-2.5-1.2-3.7-1.7l-4.5,7.8      l-21,2.7C235.9,302.4,238.1,303.3,240.2,304.4z"/><path d="M296.3,374.4l9.6-4.6c0.7-2.4,1.2-5,1.4-7.8l-10.2,5.3l-13.1-3c0.3,2.2,0.4,4.3,0.4,6.4c0,0.2,0,0.4,0,0.6L296.3,374.4z      "/><path d="M281.1,385.5c-0.8,1.5-1.7,2.9-2.7,4.2c-0.1,0.1-0.2,0.2-0.3,0.4l2.9,0.4l7.6-3.8L281.1,385.5z"/><path d="M278.8,346.2l17.1,3.6l8.7-7.6c-0.8-2.6-1.9-5.3-3-7.9l-8.7,7.3l-17.8-2.9c1.2,2.2,2.4,4.5,3.5,6.8      C278.6,345.7,278.7,346,278.8,346.2z"/></g></g></g><polygon opacity="0.2" points="202,258 183,268 183,255 202,245  "/><polygon opacity="0.15" points="164,159 164,188.1 180.8,196.6 202,230.6 202,178.1  "/></g></svg>